<svg width="40" height="48" viewBox="0 0 40 48" fill="none" xmlns="http://www.w3.org/2000/svg">
<path d="M1.404 20.476C1.404 18.828 1.704 17.348 2.304 16.036C2.912 14.724 3.78 13.608 4.908 12.688C6.036 11.76 7.404 11.052 9.012 10.564C10.628 10.068 12.444 9.82 14.46 9.82C16.516 9.82 18.348 10.08 19.956 10.6C21.564 11.112 22.924 11.86 24.036 12.844C25.148 13.82 25.996 15.02 26.58 16.444C27.164 17.868 27.456 19.488 27.456 21.304V37H19.104V30.4C18.824 31.528 18.388 32.544 17.796 33.448C17.212 34.352 16.496 35.12 15.648 35.752C14.808 36.384 13.852 36.868 12.78 37.204C11.716 37.548 10.564 37.72 9.324 37.72C8.02 37.72 6.832 37.532 5.76 37.156C4.696 36.788 3.78 36.268 3.012 35.596C2.252 34.916 1.664 34.104 1.248 33.16C0.832 32.208 0.624 31.152 0.624 29.992C0.624 28.72 0.876 27.584 1.38 26.584C1.892 25.576 2.632 24.728 3.6 24.04C4.576 23.352 5.764 22.828 7.164 22.468C8.572 22.1 10.168 21.916 11.952 21.916H19.104V21.304C19.104 20.48 18.996 19.748 18.78 19.108C18.572 18.46 18.26 17.916 17.844 17.476C17.436 17.028 16.932 16.688 16.332 16.456C15.732 16.224 15.04 16.108 14.256 16.108C13.472 16.108 12.796 16.208 12.228 16.408C11.66 16.608 11.188 16.896 10.812 17.272C10.444 17.64 10.168 18.096 9.984 18.64C9.808 19.176 9.72 19.788 9.72 20.476H1.404ZM13.08 26.428C11.736 26.428 10.72 26.652 10.032 27.1C9.352 27.54 9.012 28.196 9.012 29.068C9.012 29.94 9.352 30.616 10.032 31.096C10.712 31.576 11.676 31.816 12.924 31.816C13.804 31.816 14.62 31.7 15.372 31.468C16.124 31.228 16.776 30.904 17.328 30.496C17.88 30.088 18.312 29.604 18.624 29.044C18.944 28.484 19.104 27.88 19.104 27.232V26.428H13.08ZM38.2155 37H30.1515V28.648H38.2155V37Z" fill="#292929"/>
<rect x="1" y="2" width="27" height="2" fill="#292929"/>
</svg>
